<?xml version="1.0" encoding="UTF-8"?>
<svg xmlns="http://www.w3.org/2000/svg" xmlns:xlink="http://www.w3.org/1999/xlink" width="800px" height="300px" viewBox="0 0 500 642" version="1.1">
<g id="surface1">
<path style=" stroke:none;fill-rule:nonzero;fill:rgb(100%,0%,0%);fill-opacity:1;" d="M 80.082031 531.46875 C 80.082031 531.46875 77 515.464844 71.582031 506.800781 C 66.167969 498.132812 24.417969 431.332031 18.25 421.46875 C 12.082031 411.601562 0 392.402344 0 364.402344 C 0 336.402344 14.75 316.402344 32.582031 304.933594 C 50.417969 293.46875 340.417969 105.199219 361.917969 90.800781 C 383.417969 76.398438 414.332031 54.265625 428.332031 43.601562 C 442.332031 32.933594 482 2.898438 483.3125 1.765625 C 484.625 0.632812 485.332031 0 485.957031 0 C 486.582031 0 487.167969 0.867188 487.167969 2 C 487.167969 3.132812 486.707031 4.699219 486.5625 5.46875 C 486.417969 6.234375 474.417969 63.332031 464.917969 82.800781 C 455.417969 102.265625 450.75 110.53125 405.25 136.132812 C 359.75 161.734375 55.917969 332.402344 48.25 337.199219 C 40.582031 342 23.25 350.535156 23.25 371.066406 C 23.25 387.601562 33.582031 400.402344 36.582031 404.667969 C 39.582031 408.933594 121.25 531.46875 121.25 531.46875 Z M 80.082031 531.46875 "/>
<path style=" stroke:none;fill-rule:nonzero;fill:rgb(100%,0%,0%);fill-opacity:1;" d="M 44.25 399 C 44.25 399 36.832031 388 35.832031 386.398438 C 34.832031 384.800781 32.667969 378.800781 32.667969 374.535156 C 32.667969 370.265625 33.167969 360 44.417969 354.398438 C 55.667969 348.800781 318.25 210.53125 332.582031 203.332031 C 346.917969 196.132812 431.5625 151.199219 446.625 140.398438 C 449.8125 138.199219 450.375 137.667969 450.875 137.667969 C 451.375 137.667969 452.019531 138.167969 452.019531 139.398438 C 452.019531 140.632812 451.667969 141.566406 451.394531 142.265625 C 451.125 142.96875 436.625 190.601562 428.125 205.601562 C 419.625 220.601562 412 231.199219 396.5 237.398438 C 381 243.601562 139.375 347.601562 137.8125 348.300781 C 136.25 349 134.4375 351.300781 134.4375 354.398438 C 134.4375 359.5 137.0625 359.898438 137.0625 359.898438 Z M 44.25 399 "/>
<path style=" stroke:none;fill-rule:nonzero;fill:rgb(100%,0%,0%);fill-opacity:1;" d="M 49.625 406.601562 L 71 438.398438 L 181.875 405 C 181.875 405 179 402.101562 179 398.75 C 179 395.398438 180.6875 393.199219 182.71875 392.550781 C 184.75 391.898438 345.5 342 355.5 339.199219 C 365.5 336.402344 378.667969 331.734375 389.417969 310.933594 C 400.167969 290.132812 410.59375 262.351562 410.9375 261.5 C 411.28125 260.648438 411.40625 260.148438 411.40625 259.648438 C 411.40625 259.148438 411.21875 257.898438 410.40625 257.898438 C 409.59375 257.898438 409.15625 258.199219 408.34375 258.699219 C 407.53125 259.199219 49.625 406.601562 49.625 406.601562 Z M 49.625 406.601562 "/>
<path style=" stroke:none;fill-rule:nonzero;fill:rgb(100%,0%,0%);fill-opacity:1;" d="M 364 359.800781 C 363.546875 359.964844 76.082031 446.132812 76.082031 446.132812 L 101 483 L 233.957031 456.199219 C 233.957031 456.199219 231.457031 454.734375 231.457031 450.601562 C 231.457031 446.464844 233.917969 444.933594 235.332031 444.53125 C 236.75 444.132812 303.75 428.398438 311.625 426.53125 C 319.5 424.664062 332.457031 420.332031 343.375 401.933594 C 354.292969 383.53125 365.042969 363.132812 365.460938 362.332031 C 365.875 361.53125 365.9375 361.03125 365.9375 360.632812 C 365.9375 360.234375 365.625 359.398438 365 359.398438 C 364.832031 359.398438 364.457031 359.632812 364 359.800781 Z M 364 359.800781 "/>
<path style=" stroke:none;fill-rule:nonzero;fill:rgb(100%,0%,0%);fill-opacity:1;" d="M 106.917969 491.601562 L 133.582031 531.601562 L 309.582031 531.601562 L 243.75 466 Z M 106.917969 491.601562 "/>
<path style=" stroke:none;fill-rule:nonzero;fill:rgb(100%,0%,0%);fill-opacity:1;" d="M 97.804688 562 C 98.554688 561.867188 104.886719 560.398438 104.886719 560.398438 L 104.886719 548.53125 L 59.917969 548.53125 L 59.917969 560.398438 C 59.917969 560.398438 66.25 561.867188 67 562 C 67.75 562.132812 71.082031 563.332031 71.082031 569.332031 L 71.082031 584.402344 L 36.386719 584.402344 L 36.386719 569.332031 C 36.386719 563.332031 39.722656 562.132812 40.472656 562 C 41.222656 561.867188 47.554688 560.398438 47.554688 560.398438 L 47.554688 548.53125 L 2.582031 548.53125 L 2.582031 560.398438 C 2.582031 560.398438 8.917969 561.867188 9.667969 562 C 10.417969 562.132812 13.75 563.332031 13.75 569.332031 L 13.75 617.835938 C 13.75 623.835938 10.417969 625.035156 9.667969 625.167969 C 8.917969 625.300781 2.582031 626.429688 2.582031 626.429688 L 2.582031 638.296875 L 47.554688 638.296875 L 47.554688 626.429688 C 47.554688 626.429688 41.222656 625.300781 40.472656 625.167969 C 39.722656 625.035156 36.386719 623.835938 36.386719 617.835938 L 36.386719 602.667969 L 71.082031 602.667969 L 71.082031 617.835938 C 71.082031 623.835938 67.75 625.035156 67 625.167969 C 66.25 625.300781 59.917969 626.429688 59.917969 626.429688 L 59.917969 638.296875 L 104.886719 638.296875 L 104.886719 626.429688 C 104.886719 626.429688 98.554688 625.300781 97.804688 625.167969 C 97.054688 625.035156 93.722656 623.835938 93.722656 617.835938 L 93.722656 569.332031 C 93.722656 563.332031 97.054688 562.132812 97.804688 562 Z M 97.804688 562 "/>
<path style=" stroke:none;fill-rule:nonzero;fill:rgb(100%,0%,0%);fill-opacity:1;" d="M 153.167969 545.601562 C 124.167969 545.601562 107.25 562.441406 107.25 593.648438 C 107.25 624.859375 124.167969 641.699219 153.167969 641.699219 C 182.167969 641.699219 199.082031 624.859375 199.082031 593.648438 C 199.082031 562.441406 182.167969 545.601562 153.167969 545.601562 Z M 153.167969 625.117188 C 147.5 625.117188 133.25 625.382812 133.25 593.648438 C 133.25 561.917969 147.5 562.179688 153.167969 562.179688 C 158.832031 562.179688 173.082031 561.917969 173.082031 593.648438 C 173.082031 625.382812 158.832031 625.117188 153.167969 625.117188 Z M 153.167969 625.117188 "/>
<path style=" stroke:none;fill-rule:nonzero;fill:rgb(100%,0%,0%);fill-opacity:1;" d="M 264.792969 560.601562 L 264.792969 548.398438 L 300.917969 548.398438 L 300.917969 560.398438 C 300.917969 560.398438 294.625 561.398438 293.40625 561.648438 C 292.1875 561.898438 289.5 563.851562 289.5 569.351562 C 289.5 574.851562 289.5 634.898438 289.5 638.398438 C 289.5 638.398438 262.917969 638.398438 261.582031 638.398438 C 260.25 638.398438 258.3125 637.800781 257.1875 635.601562 C 256.0625 633.398438 226.625 571.800781 226.625 571.800781 C 226.625 577.300781 226.625 615.101562 226.625 618.601562 C 226.625 622.101562 228.78125 624.449219 230.375 624.800781 C 231.96875 625.148438 238 626.367188 238 626.367188 L 238 638.398438 L 238 626.367188 L 238 638.398438 L 201.832031 638.402344 L 201.832031 626.402344 C 201.832031 626.402344 208.125 625.398438 209.34375 625.148438 C 210.5625 624.898438 213.25 622.949219 213.25 617.449219 C 213.25 611.949219 213.25 571.800781 213.25 568.300781 C 213.25 564.800781 211.09375 562.449219 209.5 562.101562 C 207.90625 561.75 201.875 560.699219 201.875 560.699219 L 201.875 548.398438 C 201.875 548.398438 239.832031 548.398438 241.167969 548.398438 C 242.5 548.398438 244.4375 549 245.5625 551.199219 C 246.6875 553.398438 276.125 615 276.125 615 C 276.125 609.5 276.125 571.699219 276.125 568.199219 C 276.125 564.699219 273.96875 562.351562 272.375 562 C 270.78125 561.648438 264.792969 560.601562 264.792969 560.601562 L 264.792969 548.398438 "/>
<path style=" stroke:none;fill-rule:nonzero;fill:rgb(100%,0%,0%);fill-opacity:1;" d="M 362.917969 548.398438 C 352.019531 548.398438 304.707031 548.398438 304.707031 548.398438 L 304.707031 560.699219 C 304.707031 560.699219 310.738281 561.75 312.332031 562.101562 C 313.925781 562.449219 316.082031 564.800781 316.082031 568.300781 C 316.082031 571.800781 316.082031 611.949219 316.082031 617.449219 C 316.082031 622.949219 313.394531 624.898438 312.175781 625.148438 C 310.957031 625.398438 304.667969 626.402344 304.667969 626.402344 L 304.667969 638.402344 L 362.917969 638.398438 C 381.773438 638.398438 397.6875 624.398438 397.6875 593 C 397.6875 561.601562 379.75 548.398438 362.917969 548.398438 Z M 357.25 621.332031 L 337.917969 621.332031 L 337.917969 565.734375 C 337.917969 565.734375 350.167969 565.734375 357.332031 565.734375 C 364.5 565.734375 371.667969 569.601562 371.667969 593.066406 C 371.667969 616.535156 366 621.332031 357.25 621.332031 Z M 357.25 621.332031 "/>
<path style=" stroke:none;fill-rule:nonzero;fill:rgb(100%,0%,0%);fill-opacity:1;" d="M 492 625.050781 C 489.09375 624.550781 487.59375 620.101562 487.21875 619.199219 C 486.84375 618.300781 460.65625 554.351562 459.625 551.949219 C 458.59375 549.550781 456.53125 548.550781 455.46875 548.550781 C 454.40625 548.550781 412 548.550781 412 548.550781 L 412 560.75 C 412 560.75 421.21875 562.199219 422.375 562.398438 C 423.53125 562.601562 424.71875 566 424.71875 567.148438 C 424.71875 568.300781 424.3125 569.398438 424.0625 570.101562 C 423.8125 570.800781 405.34375 619.050781 404.375 621.449219 C 403.40625 623.851562 401.78125 624.949219 400.59375 625.101562 C 399.40625 625.25 393.25 626.132812 393.25 626.132812 L 393.25 638.402344 L 429.082031 638.402344 L 429.082031 626.535156 L 421.832031 625.066406 C 420.207031 624.601562 419.75 621.667969 419.75 620.933594 C 419.75 620.199219 420 619.066406 420.457031 617.933594 C 420.5625 617.675781 421.609375 614.96875 423.167969 610.933594 L 457.753906 610.933594 C 459.417969 614.96875 460.535156 617.675781 460.636719 617.933594 C 461.097656 619.066406 461.347656 620.199219 461.347656 620.933594 C 461.347656 621.667969 460.886719 624.601562 459.261719 625.066406 L 451 626.132812 L 451 638.402344 L 499.582031 638.402344 L 499.582031 626.535156 C 499.582031 626.535156 494.90625 625.550781 492 625.050781 Z M 429.238281 595.199219 C 434.382812 581.859375 439.875 567.601562 439.875 567.601562 C 439.875 567.601562 445.757812 581.859375 451.265625 595.199219 Z M 429.238281 595.199219 "/>
</g>
</svg>
