<?xml version="1.0" encoding="UTF-8"?>
<svg xmlns="http://www.w3.org/2000/svg" xmlns:xlink="http://www.w3.org/1999/xlink" width="800px" height="400px" viewBox="0 0 800 400" version="1.1">
<g id="surface1">
<path style=" stroke:none;fill-rule:nonzero;fill:rgb(83.529413%,16.862746%,11.764706%);fill-opacity:1;" d="M 46.546875 62.019531 C 26.332031 96.324219 5.164062 119.523438 1.230469 123.722656 L 101.046875 303.535156 L 101.210938 304.359375 L 96.582031 312.714844 L 59.703125 248.167969 C 45.792969 224 30.449219 229.128906 20.03125 237.695312 C 10.03125 245.90625 2.664062 258.480469 0.839844 261.757812 C 1.710938 263.332031 76.242188 397.300781 76.746094 398.210938 C 78.351562 394.324219 89.273438 368.679688 112.222656 332.261719 C 136.421875 293.921875 150.6875 280.519531 153.992188 277.683594 L 53.988281 97.566406 L 53.824219 96.75 L 58.25 88.679688 C 58.804688 88.902344 72.210938 111.539062 96.3125 155.1875 C 118.914062 196.078125 150.429688 147.042969 154.765625 139.921875 C 153.847656 138.292969 78.136719 2.625 77.65625 1.761719 C 75.761719 5.914062 61.796875 36.222656 46.546875 62.019531 Z M 46.546875 62.019531 "/>
<path style=" stroke:none;fill-rule:nonzero;fill:rgb(0%,20.392157%,47.058824%);fill-opacity:1;" d="M 420.605469 92.097656 L 420.605469 149.394531 L 470.308594 149.394531 C 470.6875 150.640625 470.644531 150.898438 470.566406 151.089844 L 418.855469 275.273438 L 418.855469 323.558594 L 523.328125 323.558594 L 523.328125 266.019531 L 471.316406 266.019531 C 471.058594 264.3125 523.261719 141.046875 523.507812 140.460938 L 523.507812 92.085938 C 522.757812 92.097656 421.359375 92.097656 420.605469 92.097656 Z M 378.746094 92.097656 L 378.746094 239.136719 C 378.746094 260.621094 371.414062 273.445312 359.132812 273.445312 C 346.671875 273.445312 339.523438 260.730469 339.523438 238.558594 L 339.523438 92.105469 L 307.449219 92.105469 L 307.449219 243.261719 C 307.449219 275.40625 310.632812 295.5625 317.777344 308.589844 C 325.59375 322.867188 338.734375 329.515625 359.128906 329.515625 C 379.527344 329.515625 392.671875 322.867188 400.488281 308.589844 C 407.632812 295.5625 410.820312 275.402344 410.820312 243.261719 L 410.820312 92.105469 Z M 604.15625 92.097656 L 604.15625 238.539062 C 604.15625 260.398438 596.832031 273.441406 584.554688 273.441406 C 572.082031 273.441406 564.929688 260.726562 564.929688 238.550781 L 564.929688 92.097656 L 532.863281 92.097656 L 532.863281 243.253906 C 532.863281 275.402344 536.050781 295.554688 543.195312 308.585938 C 551.015625 322.863281 564.15625 329.507812 584.554688 329.507812 C 604.941406 329.507812 618.082031 322.863281 625.910156 308.585938 C 633.054688 295.550781 636.242188 275.394531 636.242188 243.253906 L 636.242188 92.097656 Z M 765.9375 92.097656 L 765.9375 323.570312 L 799.445312 323.570312 L 799.445312 92.097656 Z M 716.078125 92.097656 C 715.863281 92.566406 679.757812 172.433594 679.757812 172.433594 L 679.125 92.097656 L 645.625 92.097656 L 645.625 323.570312 L 679.125 323.570312 L 679.125 241.773438 C 679.125 241.386719 679.210938 241.019531 679.355469 240.875 C 679.769531 241.0625 713.28125 323.027344 713.496094 323.570312 L 758.386719 323.570312 L 709.03125 205.527344 L 708.910156 204.785156 C 708.910156 204.511719 708.957031 204.242188 709.042969 204.054688 L 759.980469 92.09375 Z M 191.789062 161.820312 C 191.789062 186.988281 195.574219 204.0625 203.695312 215.53125 C 211.167969 226.089844 222.398438 232.664062 241.246094 237.53125 L 244.808594 238.320312 C 252.980469 239.992188 262.238281 241.882812 262.238281 259.101562 C 262.238281 270.894531 257.261719 277.40625 248.226562 277.40625 C 243.816406 277.40625 237.339844 274.535156 231.914062 250.089844 L 189.871094 250.089844 C 189.96875 276.894531 193.828125 295.292969 202.035156 307.855469 C 211.292969 322.039062 226.378906 328.925781 248.160156 328.925781 C 296.738281 328.925781 300.511719 270.734375 300.511719 252.902344 C 300.511719 211.542969 286.183594 186.707031 256.703125 177 L 252.070312 175.492188 C 238.617188 171.191406 227.992188 167.796875 227.992188 155.652344 C 227.992188 150.957031 228.59375 147.023438 229.785156 143.972656 C 232.890625 135.984375 239.300781 136.007812 242.039062 136.011719 L 242.292969 136.011719 C 244.8125 136.011719 253.433594 137.949219 259.328125 162.375 L 297.425781 162.375 C 297.15625 113.496094 277.15625 85.464844 242.421875 85.464844 C 196.722656 85.457031 191.789062 138.855469 191.789062 161.820312 Z M 191.789062 161.820312 "/>
</g>
</svg>
